<svg width="299" height="50" viewBox="0 0 299 50" fill="none" xmlns="http://www.w3.org/2000/svg">
<path d="M0 50L9.79592 38.8889L37.9592 38.8895C39.5672 38.8895 41.1595 38.5303 42.6451 37.8323C44.1307 37.1343 45.4806 36.1113 46.6176 34.8216C47.7547 33.5319 48.6566 32.0008 49.272 30.3157C49.8874 28.6306 50.2041 26.8246 50.2041 25.0006C50.2041 23.1767 49.8874 21.3707 49.272 19.6856C48.6566 18.0005 47.7547 16.4694 46.6176 15.1797C45.4806 13.89 44.1307 12.867 42.6451 12.169C41.1595 11.471 39.5672 11.1118 37.9592 11.1118L9.79592 11.1111L0 0L37.9592 0.0352648C43.6835 0.359214 49.1122 2.94565 53.1858 7.32298C57.5488 12.0114 60 18.3702 60 25.0007C60 31.6311 57.5488 37.9899 53.1857 42.6783C49.1121 47.0556 43.6835 49.6421 37.9592 49.966L0 50Z" fill="url(#paint0_linear_24_87)"/>
<path fill-rule="evenodd" clip-rule="evenodd" d="M70 40V10H87C94.4558 10 100 16.7157 100 25C100 33.2843 94.4558 40 87 40H70ZM87 37H73V13H87C92.799 13 97 18.3726 97 25C97 31.6274 92.799 37 87 37Z" fill="url(#paint1_linear_24_87)"/>
<path d="M136 10H139V25.5C139 33.5081 132.508 40 124.5 40C116.492 40 110 33.5081 110 25.5V10H113V25.5C113 31.8513 118.149 37 124.5 37C130.851 37 136 31.8513 136 25.5V10Z" fill="url(#paint2_linear_24_87)"/>
<path d="M149 40H152V14L176 40H179V10H176V36L152 10H149V40Z" fill="url(#paint3_linear_24_87)"/>
<path d="M189 13V10H219V13H189Z" fill="url(#paint4_linear_24_87)"/>
<path d="M189 40V37H219V40H189Z" fill="url(#paint5_linear_24_87)"/>
<path d="M189 26.5V23.5H214V26.5H189Z" fill="url(#paint6_linear_24_87)"/>
<path fill-rule="evenodd" clip-rule="evenodd" d="M259 25C259 33.2843 252.284 40 244 40C235.716 40 229 33.2843 229 25C229 16.7157 235.716 10 244 10C252.284 10 259 16.7157 259 25ZM244 37C250.627 37 256 31.6274 256 25C256 18.3726 250.627 13 244 13C237.373 13 232 18.3726 232 25C232 31.6274 237.373 37 244 37Z" fill="url(#paint7_linear_24_87)"/>
<path d="M269 40H272V14L296 40H299V10H296V36L272 10H269V40Z" fill="url(#paint8_linear_24_87)"/>
<defs>
<linearGradient id="paint0_linear_24_87" x1="61.2245" y1="50" x2="-5.03869" y2="7.93775" gradientUnits="userSpaceOnUse">
<stop offset="0.25" stop-color="#A1A1A4"/>
<stop offset="0.5" stop-color="#EAEAEB"/>
<stop offset="0.75" stop-color="#A1A1A4"/>
</linearGradient>
<linearGradient id="paint1_linear_24_87" x1="188" y1="12.5" x2="189" y2="40" gradientUnits="userSpaceOnUse">
<stop offset="0.25" stop-color="#A1A1A4"/>
<stop offset="0.5" stop-color="#EAEAEB"/>
<stop offset="0.75" stop-color="#A1A1A4"/>
</linearGradient>
<linearGradient id="paint2_linear_24_87" x1="188" y1="12.5" x2="189" y2="40" gradientUnits="userSpaceOnUse">
<stop offset="0.25" stop-color="#A1A1A4"/>
<stop offset="0.5" stop-color="#EAEAEB"/>
<stop offset="0.75" stop-color="#A1A1A4"/>
</linearGradient>
<linearGradient id="paint3_linear_24_87" x1="188" y1="12.5" x2="189" y2="40" gradientUnits="userSpaceOnUse">
<stop offset="0.25" stop-color="#A1A1A4"/>
<stop offset="0.5" stop-color="#EAEAEB"/>
<stop offset="0.75" stop-color="#A1A1A4"/>
</linearGradient>
<linearGradient id="paint4_linear_24_87" x1="188" y1="12.5" x2="189" y2="40" gradientUnits="userSpaceOnUse">
<stop offset="0.25" stop-color="#A1A1A4"/>
<stop offset="0.5" stop-color="#EAEAEB"/>
<stop offset="0.75" stop-color="#A1A1A4"/>
</linearGradient>
<linearGradient id="paint5_linear_24_87" x1="188" y1="12.5" x2="189" y2="40" gradientUnits="userSpaceOnUse">
<stop offset="0.25" stop-color="#A1A1A4"/>
<stop offset="0.5" stop-color="#EAEAEB"/>
<stop offset="0.75" stop-color="#A1A1A4"/>
</linearGradient>
<linearGradient id="paint6_linear_24_87" x1="188" y1="12.5" x2="189" y2="40" gradientUnits="userSpaceOnUse">
<stop offset="0.25" stop-color="#A1A1A4"/>
<stop offset="0.5" stop-color="#EAEAEB"/>
<stop offset="0.75" stop-color="#A1A1A4"/>
</linearGradient>
<linearGradient id="paint7_linear_24_87" x1="188" y1="12.5" x2="189" y2="40" gradientUnits="userSpaceOnUse">
<stop offset="0.25" stop-color="#A1A1A4"/>
<stop offset="0.5" stop-color="#EAEAEB"/>
<stop offset="0.75" stop-color="#A1A1A4"/>
</linearGradient>
<linearGradient id="paint8_linear_24_87" x1="188" y1="12.5" x2="189" y2="40" gradientUnits="userSpaceOnUse">
<stop offset="0.25" stop-color="#A1A1A4"/>
<stop offset="0.5" stop-color="#EAEAEB"/>
<stop offset="0.75" stop-color="#A1A1A4"/>
</linearGradient>
</defs>
</svg>
