<svg width="60" height="50" viewBox="0 0 60 50" fill="none" xmlns="http://www.w3.org/2000/svg">
<path d="M0 50L9.79592 38.8889L37.9592 38.8895C39.5672 38.8895 41.1595 38.5303 42.6451 37.8323C44.1307 37.1343 45.4806 36.1113 46.6176 34.8216C47.7547 33.5319 48.6566 32.0008 49.272 30.3157C49.8874 28.6306 50.2041 26.8246 50.2041 25.0006C50.2041 23.1767 49.8874 21.3707 49.272 19.6856C48.6566 18.0005 47.7547 16.4694 46.6176 15.1797C45.4806 13.89 44.1307 12.867 42.6451 12.169C41.1595 11.471 39.5672 11.1118 37.9592 11.1118L9.79592 11.1111L0 0L37.9592 0.0352648C43.6835 0.359214 49.1122 2.94565 53.1858 7.32298C57.5488 12.0114 60 18.3702 60 25.0007C60 31.6311 57.5488 37.9899 53.1857 42.6783C49.1121 47.0556 43.6835 49.6421 37.9592 49.966L0 50Z" fill="url(#paint0_linear_24_92)"/>
<defs>
<linearGradient id="paint0_linear_24_92" x1="61.2245" y1="50" x2="-5.03869" y2="7.93775" gradientUnits="userSpaceOnUse">
<stop offset="0.25" stop-color="#A1A1A4"/>
<stop offset="0.5" stop-color="#EAEAEB"/>
<stop offset="0.75" stop-color="#A1A1A4"/>
</linearGradient>
</defs>
</svg>
