<svg width="229" height="50" viewBox="0 0 229 50" fill="none" xmlns="http://www.w3.org/2000/svg">
<path fill-rule="evenodd" clip-rule="evenodd" d="M0 40V10H17C24.4558 10 30 16.7157 30 25C30 33.2843 24.4558 40 17 40H0ZM17 37H3V13H17C22.799 13 27 18.3726 27 25C27 31.6274 22.799 37 17 37Z" fill="url(#paint0_linear_24_97)"/>
<path d="M66 10H69V25.5C69 33.5081 62.5081 40 54.5 40C46.4919 40 40 33.5081 40 25.5V10H43V25.5C43 31.8513 48.1487 37 54.5 37C60.8513 37 66 31.8513 66 25.5V10Z" fill="url(#paint1_linear_24_97)"/>
<path d="M79 40H82V14L106 40H109V10H106V36L82 10H79V40Z" fill="url(#paint2_linear_24_97)"/>
<path d="M119 13V10H149V13H119Z" fill="url(#paint3_linear_24_97)"/>
<path d="M119 40V37H149V40H119Z" fill="url(#paint4_linear_24_97)"/>
<path d="M119 26.5V23.5H144V26.5H119Z" fill="url(#paint5_linear_24_97)"/>
<path fill-rule="evenodd" clip-rule="evenodd" d="M189 25C189 33.2843 182.284 40 174 40C165.716 40 159 33.2843 159 25C159 16.7157 165.716 10 174 10C182.284 10 189 16.7157 189 25ZM174 37C180.627 37 186 31.6274 186 25C186 18.3726 180.627 13 174 13C167.373 13 162 18.3726 162 25C162 31.6274 167.373 37 174 37Z" fill="url(#paint6_linear_24_97)"/>
<path d="M199 40H202V14L226 40H229V10H226V36L202 10H199V40Z" fill="url(#paint7_linear_24_97)"/>
<defs>
<linearGradient id="paint0_linear_24_97" x1="118" y1="12.5" x2="119" y2="40" gradientUnits="userSpaceOnUse">
<stop offset="0.25" stop-color="#A1A1A4"/>
<stop offset="0.5" stop-color="#EAEAEB"/>
<stop offset="0.75" stop-color="#A1A1A4"/>
</linearGradient>
<linearGradient id="paint1_linear_24_97" x1="118" y1="12.5" x2="119" y2="40" gradientUnits="userSpaceOnUse">
<stop offset="0.25" stop-color="#A1A1A4"/>
<stop offset="0.5" stop-color="#EAEAEB"/>
<stop offset="0.75" stop-color="#A1A1A4"/>
</linearGradient>
<linearGradient id="paint2_linear_24_97" x1="118" y1="12.5" x2="119" y2="40" gradientUnits="userSpaceOnUse">
<stop offset="0.25" stop-color="#A1A1A4"/>
<stop offset="0.5" stop-color="#EAEAEB"/>
<stop offset="0.75" stop-color="#A1A1A4"/>
</linearGradient>
<linearGradient id="paint3_linear_24_97" x1="118" y1="12.5" x2="119" y2="40" gradientUnits="userSpaceOnUse">
<stop offset="0.25" stop-color="#A1A1A4"/>
<stop offset="0.5" stop-color="#EAEAEB"/>
<stop offset="0.75" stop-color="#A1A1A4"/>
</linearGradient>
<linearGradient id="paint4_linear_24_97" x1="118" y1="12.5" x2="119" y2="40" gradientUnits="userSpaceOnUse">
<stop offset="0.25" stop-color="#A1A1A4"/>
<stop offset="0.5" stop-color="#EAEAEB"/>
<stop offset="0.75" stop-color="#A1A1A4"/>
</linearGradient>
<linearGradient id="paint5_linear_24_97" x1="118" y1="12.5" x2="119" y2="40" gradientUnits="userSpaceOnUse">
<stop offset="0.25" stop-color="#A1A1A4"/>
<stop offset="0.5" stop-color="#EAEAEB"/>
<stop offset="0.75" stop-color="#A1A1A4"/>
</linearGradient>
<linearGradient id="paint6_linear_24_97" x1="118" y1="12.5" x2="119" y2="40" gradientUnits="userSpaceOnUse">
<stop offset="0.25" stop-color="#A1A1A4"/>
<stop offset="0.5" stop-color="#EAEAEB"/>
<stop offset="0.75" stop-color="#A1A1A4"/>
</linearGradient>
<linearGradient id="paint7_linear_24_97" x1="118" y1="12.5" x2="119" y2="40" gradientUnits="userSpaceOnUse">
<stop offset="0.25" stop-color="#A1A1A4"/>
<stop offset="0.5" stop-color="#EAEAEB"/>
<stop offset="0.75" stop-color="#A1A1A4"/>
</linearGradient>
</defs>
</svg>
